HIERARCHY
ROOT Hips
{
	OFFSET 0.000000 0.000000 0.000000
	CHANNELS 6 Xposition Yposition Zposition Xrotation Yrotation Zrotation
	JOINT LeftUpLeg_virtual
	{
		OFFSET 0.000000 0.000000 0.000000
		CHANNELS 3 Xrotation Yrotation Zrotation
		JOINT LeftUpLeg
		{
			OFFSET 11.394100 -6.187798 -0.413800
			CHANNELS 3 Xrotation Yrotation Zrotation
			JOINT LeftLeg
			{
				OFFSET 0.430247 -32.302673 3.732800
				CHANNELS 3 Xrotation Yrotation Zrotation
				JOINT LeftFoot
				{
					OFFSET -0.430247 -48.264931 -6.423300
					CHANNELS 3 Xrotation Yrotation Zrotation
					JOINT LeftToeBase
					{
						OFFSET 4.230900 -16.068199 23.438400
						CHANNELS 3 Xrotation Yrotation Zrotation
						JOINT LeftToe_End
						{
							OFFSET 4.510700 0.695400 19.974600
							CHANNELS 3 Xrotation Yrotation Zrotation
							End Site
							{
								OFFSET 0 0 0
							}
						}
					}
				}
			}
		}
	}
	JOINT RightUpLeg_virtual
	{
		OFFSET 0.000000 0.000000 0.000000
		CHANNELS 3 Xrotation Yrotation Zrotation
		JOINT RightUpLeg
		{
			OFFSET -11.333700 -6.187798 -0.413800
			CHANNELS 3 Xrotation Yrotation Zrotation
			JOINT RightLeg
			{
				OFFSET -0.430392 -32.302628 3.733000
				CHANNELS 3 Xrotation Yrotation Zrotation
				JOINT RightFoot
				{
					OFFSET 0.430392 -48.264973 -6.423500
					CHANNELS 3 Xrotation Yrotation Zrotation
					JOINT RightToeBase
					{
						OFFSET -4.230900 -16.068199 23.438400
						CHANNELS 3 Xrotation Yrotation Zrotation
						JOINT RightToe_End
						{
							OFFSET -4.510700 0.695400 19.974600
							CHANNELS 3 Xrotation Yrotation Zrotation
							End Site
							{
								OFFSET 0 0 0
							}
						}
					}
				}
			}
		}
	}
	JOINT Spine_virtual
	{
		OFFSET 0.000000 0.000000 0.000000
		CHANNELS 3 Xrotation Yrotation Zrotation
		JOINT Spine
		{
			OFFSET -0.002400 12.777504 0.315300
			CHANNELS 3 Xrotation Yrotation Zrotation
			JOINT Spine1
			{
				OFFSET -0.002067 5.816869 0.032633
				CHANNELS 3 Xrotation Yrotation Zrotation
				JOINT Spine1_split
				{
					OFFSET -0.002067 5.816869 0.032633
					CHANNELS 3 Xrotation Yrotation Zrotation
					JOINT Spine2
					{
						OFFSET -0.002067 5.816869 0.032633
						CHANNELS 3 Xrotation Yrotation Zrotation
						JOINT Neck_virtual
						{
							OFFSET 0.000000 0.000000 0.000000
							CHANNELS 3 Xrotation Yrotation Zrotation
							JOINT Neck
							{
								OFFSET -0.003700 21.199493 -0.826900
								CHANNELS 3 Xrotation Yrotation Zrotation
								JOINT Head
								{
									OFFSET 0.000000 20.442200 4.834800
									CHANNELS 3 Xrotation Yrotation Zrotation
									JOINT HeadTop_End
									{
										OFFSET 0.000000 34.668396 4.968400
										CHANNELS 3 Xrotation Yrotation Zrotation
										End Site
										{
											OFFSET 0 0 0
										}
									}
								}
							}
						}
						JOINT LeftShoulder_virtual
						{
							OFFSET 0.000000 0.000000 0.000000
							CHANNELS 3 Xrotation Yrotation Zrotation
							JOINT LeftShoulder
							{
								OFFSET 3.288150 8.794197 -1.372250
								CHANNELS 3 Xrotation Yrotation Zrotation
								JOINT LeftShoulder_split
								{
									OFFSET 3.288150 8.794197 -1.372250
									CHANNELS 3 Xrotation Yrotation Zrotation
									JOINT LeftArm
									{
										OFFSET 11.953299 -2.279007 -0.146200
										CHANNELS 3 Xrotation Yrotation Zrotation
										JOINT LeftForeArm
										{
											OFFSET 18.448900 0.000000 0.000000
											CHANNELS 3 Xrotation Yrotation Zrotation
											JOINT LeftHand
											{
												OFFSET 29.527798 0.000000 0.000000
												CHANNELS 3 Xrotation Yrotation Zrotation
												End Site
												{
													OFFSET 0 0 0
												}
											}
										}
									}
								}
							}
						}
						JOINT RightShoulder_virtual
						{
							OFFSET 0.000000 0.000000 0.000000
							CHANNELS 3 Xrotation Yrotation Zrotation
							JOINT RightShoulder
							{
								OFFSET -3.249400 8.794197 -1.372250
								CHANNELS 3 Xrotation Yrotation Zrotation
								JOINT RightShoulder_split
								{
									OFFSET -3.249400 8.794197 -1.372250
									CHANNELS 3 Xrotation Yrotation Zrotation
									JOINT RightArm
									{
										OFFSET -11.953299 -2.279007 -0.146200
										CHANNELS 3 Xrotation Yrotation Zrotation
										JOINT RightForeArm
										{
											OFFSET -18.448900 0.000000 0.000000
											CHANNELS 3 Xrotation Yrotation Zrotation
											JOINT RightHand
											{
												OFFSET -29.527802 0.000000 0.000000
												CHANNELS 3 Xrotation Yrotation Zrotation
												End Site
												{
													OFFSET 0 0 0
												}
											}
										}
									}
								}
							}
						}
					}
				}
			}
		}
	}
}
MOTION
Frames: 6
Frame Time: 0.03333333
-2.157202 96.313782 1.695629 0.000000 0.000000 0.000000 2.051421 2.325997 -3.497485 -31.384046 5.194016 12.173794 46.228885 0.322087 1.367457 1.229293 -2.008421 -2.025909 0.730795 -0.437728 -2.346711 0.000000 0.000000 0.000000 3.893937 3.624000 -3.147006 -20.976809 -4.202114 4.188540 24.677689 -0.044431 -3.643521 -10.069256 3.677849 -0.162446 0.318239 -0.416338 0.689341 0.000000 0.000000 0.000000 0.935464 0.578275 -3.139168 6.204357 -0.513347 3.485587 2.899320 -1.460523 1.771587 0.894434 -0.399834 0.793214 0.000000 0.000000 0.000000 2.772250 -1.516751 1.414636 -2.215263 4.760390 -0.982834 -1.208069 0.976728 -0.950015 0.000000 0.000000 0.000000 2.899488 -1.785649 1.313830 1.159071 -10.095367 -15.021309 1.350110 2.843618 -3.020910 13.059604 -23.824429 -46.699899 -0.796919 -22.070488 -2.268236 0.000000 0.000000 0.000000 1.631429 -1.427285 2.567746 0.791396 3.063367 16.957488 0.835907 0.307821 -2.839764 7.331896 23.266235 47.565762 -0.422280 34.241664 1.694946 0.000000 0.000000 0.000000 
-0.743709 96.159393 3.195606 0.000000 0.000000 0.000000 2.171174 2.129192 -3.040832 -30.720258 4.695390 12.716093 44.476221 1.060291 0.985664 0.650941 -1.632933 -1.045640 1.167293 -0.171151 -2.841980 0.000000 0.000000 0.000000 4.123938 3.620408 -2.698139 -20.674815 -3.727136 3.335268 24.981555 0.084620 -3.645597 -10.399163 3.405231 -0.450868 0.579481 -0.483284 0.645630 0.000000 0.000000 0.000000 1.106305 0.807714 -3.051154 6.218192 -0.065581 3.318644 3.144860 -1.229994 1.631169 0.685279 0.534614 0.701019 0.000000 0.000000 0.000000 2.828877 -1.286673 1.235627 -2.142864 4.245387 -0.437599 -1.604032 0.805291 -0.984825 0.000000 0.000000 0.000000 3.143885 -1.486027 1.241279 1.077550 -9.615480 -15.139862 0.568657 3.710454 -3.653881 13.489818 -22.148540 -47.037194 -0.853211 -21.268313 -2.321354 0.000000 0.000000 0.000000 1.706117 -1.208048 2.314393 0.566065 3.089835 16.585050 1.413584 0.908213 -3.169161 6.618246 23.915404 47.385052 -0.341787 37.663104 1.579572 0.000000 0.000000 0.000000 
1.403370 96.462807 5.389141 0.000000 0.000000 0.000000 2.177720 2.132948 -2.251518 -29.859664 4.193748 14.032521 40.842018 2.572153 0.725546 1.165191 -0.449889 -1.613634 1.001953 0.164317 -3.391269 0.000000 0.000000 0.000000 4.029159 3.957113 -2.018068 -19.050426 -3.151482 1.860819 24.752064 0.587204 -3.790625 -10.719922 2.989648 -0.060899 0.321383 -0.429076 0.451058 0.000000 0.000000 0.000000 1.203636 1.421516 -2.579540 6.444249 0.950645 2.882835 3.376148 -0.278171 1.301468 0.722049 0.825005 0.746540 0.000000 0.000000 0.000000 2.918622 -0.339675 0.817852 -1.888968 3.453051 -0.158950 -2.248619 -0.738729 -0.874341 0.000000 0.000000 0.000000 3.288033 -0.482865 0.926967 0.929435 -9.564027 -15.605258 -0.347432 3.971344 -3.999714 12.804137 -19.342846 -47.559946 -0.963145 -20.868215 -2.317262 0.000000 0.000000 0.000000 1.826053 -0.244927 1.832220 0.303168 3.785045 16.232300 2.153154 0.755285 -3.254285 7.174644 24.149867 46.447281 -0.179372 43.955406 1.273811 0.000000 0.000000 0.000000 
4.001393 97.032288 7.866142 0.000000 0.000000 0.000000 2.024621 2.318048 -1.362616 -29.106332 3.782741 15.882114 35.868260 4.408049 0.717390 3.112865 0.859445 -3.990931 0.135078 0.505374 -3.623430 0.000000 0.000000 0.000000 3.620174 4.311501 -1.268422 -16.235658 -2.647050 -0.062121 23.774767 1.464214 -3.977622 -10.933720 2.630360 0.941409 -0.175111 -0.281548 0.140362 0.000000 0.000000 0.000000 1.098055 2.005292 -1.882966 6.767398 2.375079 2.321941 3.610450 1.195178 0.851605 1.098494 0.395468 0.795494 0.000000 0.000000 0.000000 3.068662 1.171808 0.273578 -1.557749 2.511974 -0.131809 -3.045340 -3.443126 -0.650476 0.000000 0.000000 0.000000 3.394470 1.059454 0.450069 0.732859 -9.976596 -16.389949 -0.937084 3.661690 -4.168937 11.159119 -15.781849 -48.130745 -1.045402 -20.868813 -2.231350 0.000000 0.000000 0.000000 2.000434 1.287584 1.224811 0.006881 5.078314 15.914990 2.786890 0.033501 -2.980091 8.712693 23.635076 44.923209 0.133476 51.705082 0.724093 0.000000 0.000000 0.000000 
6.769817 97.688042 10.496201 0.000000 0.000000 0.000000 1.664952 2.404555 -0.590376 -28.772776 3.532512 18.015372 30.743013 6.083395 0.950876 6.416139 1.450923 -8.009614 -0.959700 0.742219 -3.250323 0.000000 0.000000 0.000000 3.006106 4.475425 -0.649902 -12.638816 -2.482098 -2.200017 22.032104 2.604830 -4.074335 -11.071509 2.481496 2.303004 -0.405426 -0.088087 -0.173729 0.000000 0.000000 0.000000 0.984133 2.450268 -1.225891 7.110473 4.000997 1.791165 3.847746 2.965241 0.358780 1.427854 -0.166038 0.880553 0.000000 0.000000 0.000000 3.280401 3.005820 -0.266850 -1.291157 1.521013 -0.315791 -3.847618 -6.836643 -0.360376 0.000000 0.000000 0.000000 3.483850 2.912724 -0.074069 0.501476 -10.773829 -17.473485 -0.996081 3.186337 -4.209237 8.922908 -11.728729 -48.701810 -1.010953 -21.148803 -2.038569 0.000000 0.000000 0.000000 2.211246 3.145610 0.621686 -0.289530 6.873224 15.663777 3.195208 -0.656504 -2.690184 10.455390 22.261344 43.114439 0.575508 59.668048 -0.016913 0.000000 0.000000 0.000000 
9.447137 98.197380 13.113647 0.000000 0.000000 0.000000 1.079614 2.133672 -0.134545 -28.737498 3.403869 19.977094 26.272989 7.375732 1.255783 10.270300 0.721315 -12.759804 -1.922480 0.791646 -2.220930 0.000000 0.000000 0.000000 2.341416 4.497060 -0.340263 -8.778533 -2.700117 -4.272341 19.769668 3.846441 -3.979109 -11.367479 2.626525 3.863605 -0.348242 0.056941 -0.396472 0.000000 0.000000 0.000000 0.747179 2.392544 -0.820285 7.468340 5.592990 1.401630 4.069642 4.815382 -0.097747 1.709447 -0.799784 0.806538 0.000000 0.000000 0.000000 3.499544 4.927488 -0.707105 -1.179789 0.592093 -0.588317 -4.407109 -10.406656 -0.017143 0.000000 0.000000 0.000000 3.597990 4.842698 -0.554227 0.248558 -11.803271 -18.676411 -0.694649 2.791441 -4.249168 6.463419 -7.596787 -49.264259 -0.848969 -21.605680 -1.737212 0.000000 0.000000 0.000000 2.458721 5.084065 0.097634 -0.569245 9.008030 15.473112 3.196475 -0.850566 -2.541512 11.633391 19.987729 41.423373 1.042011 66.803826 -0.808527 0.000000 0.000000 0.000000 
